<?xml version="1.0" encoding="UTF-8" standalone="no"?>
<!-- Created with Inkscape (http://www.inkscape.org/) -->

<svg
   width="210mm"
   height="297mm"
   viewBox="0 0 210 297"
   version="1.1"
   id="svg5"
   xml:space="preserve"
   inkscape:export-filename="bitmap.png"
   inkscape:export-xdpi="71.752861"
   inkscape:export-ydpi="71.752861"
   inkscape:version="1.2.2 (732a01da63, 2022-12-09)"
   sodipodi:docname="drawing-1.svg"
   xmlns:inkscape="http://www.inkscape.org/namespaces/inkscape"
   xmlns:sodipodi="http://sodipodi.sourceforge.net/DTD/sodipodi-0.dtd"
   xmlns="http://www.w3.org/2000/svg"
   xmlns:svg="http://www.w3.org/2000/svg"><sodipodi:namedview
     id="namedview7"
     pagecolor="#ffffff"
     bordercolor="#000000"
     borderopacity="0.25"
     inkscape:showpageshadow="2"
     inkscape:pageopacity="0.0"
     inkscape:pagecheckerboard="0"
     inkscape:deskcolor="#d1d1d1"
     inkscape:document-units="mm"
     showgrid="false"
     inkscape:zoom="0.18128858"
     inkscape:cx="626.07363"
     inkscape:cy="554.36476"
     inkscape:window-width="1920"
     inkscape:window-height="1001"
     inkscape:window-x="-9"
     inkscape:window-y="-9"
     inkscape:window-maximized="1"
     inkscape:current-layer="layer1" /><defs
     id="defs2" /><g
     inkscape:label="Layer 1"
     inkscape:groupmode="layer"
     id="layer1"><path
       d="M 206.76969,122.2429 A 14.869295,14.869295 0 0 0 191.9002,107.37361 H 141.34479 L 112.0719,55.380622 a 4.9564318,4.9564318 0 0 0 -4.32206,-2.527827 v 0 a 4.9564318,4.9564318 0 0 0 -4.32207,2.537568 L 74.383418,107.37342 H 23.38141 a 14.869295,14.869295 0 0 0 -4.232528,29.05461 l 15.493664,81.03763 a 24.782157,24.782157 0 0 0 24.04864,18.77497 h 97.899624 a 24.782157,24.782157 0 0 0 24.10782,-19.04259 l 15.43449,-80.77001 a 14.869295,14.869295 0 0 0 10.63657,-14.18531 z m -99,-54.292754 22.14536,39.423464 H 85.743467 Z M 178.3394,176.76363 h -35.47798 l 3.96501,-39.65143 h 39.12607 z m -45.4503,0 H 82.273747 L 78.219556,137.1122 h 58.634564 z m -0.99284,9.91289 -3.9654,39.65145 H 87.288188 l -4.05419,-39.65145 z m -63.650511,-49.56432 4.05419,39.65143 H 36.950823 L 29.377458,137.1122 Z m -23.92987,78.2224 -5.471902,-28.65808 h 34.467168 l 4.054563,39.65145 H 58.689687 A 14.789992,14.789992 0 0 1 44.315879,215.3346 Z M 171.02232,215.06859 A 14.869295,14.869295 0 0 1 156.5893,226.3296 h -18.68575 l 3.96501,-39.65143 h 34.57621 z m 20.87638,-87.8676 H 23.379911 a 4.9564449,4.9564449 0 0 1 0,-9.91289 h 45.460421 l -0.434603,0.8029 a 4.9564318,4.9564318 0 0 0 8.653883,4.8276 l 3.143393,-5.63053 h 55.283985 l 2.52895,4.49051 a 4.9564318,4.9564318 0 0 0 8.7629,-4.49051 h 45.12324 a 4.956445,4.956445 0 0 1 0,9.91289 z"
       id="path434"
       style="stroke-width:9.91286;fill:#ffffff" /></g></svg>
